<svg width="378" height="339" viewBox="0 0 378 339" fill="none" xmlns="http://www.w3.org/2000/svg">
<path d="M112.452 106.191C131.693 101.881 151.628 102.181 170.352 107.065C189.076 111.948 205.961 121.25 219.393 134.081C232.825 146.912 242.354 162.843 247.069 180.35C251.785 197.857 251.528 216.355 246.324 234.073C241.12 251.792 231.142 268.139 217.346 281.551C203.55 294.963 186.396 304.991 167.526 310.675C148.655 316.36 128.7 317.512 109.567 314.02C90.4351 310.528 72.7663 302.51 58.251 290.732L85.3277 262.329C94.7627 269.985 106.247 275.197 118.683 277.466C131.119 279.736 144.09 278.987 156.356 275.292C168.622 271.597 179.772 265.079 188.739 256.361C197.707 247.644 204.192 237.018 207.575 225.501C210.958 213.984 211.125 201.96 208.06 190.581C204.995 179.201 198.801 168.846 190.07 160.506C181.339 152.165 170.364 146.119 158.193 142.945C146.023 139.771 133.065 139.576 120.559 142.377L112.452 106.191Z" fill="#D9D9D9"/>
<rect x="92" y="38.5271" width="185.404" height="42" transform="rotate(-11.9935 92 38.5271)" fill="#D9D9D9"/>
<rect x="280.088" y="115.723" width="94" height="34" transform="rotate(-8.01907 280.088 115.723)" fill="#D9D9D9"/>
<rect x="305.889" y="83.8115" width="34" height="90" transform="rotate(-8.01907 305.889 83.8115)" fill="#D9D9D9"/>
</svg>
